<?xml version="1.0" encoding="utf-8"?>
<!-- Generator: Adobe Illustrator 19.0.0, SVG Export Plug-In . SVG Version: 6.00 Build 0)  -->
<svg version="1.1" id="Layer_1" xmlns="http://www.w3.org/2000/svg" xmlns:xlink="http://www.w3.org/1999/xlink" x="0px" y="0px"
	 viewBox="0 0 512 512" style="enable-background:new 0 0 512 512;" xml:space="preserve">
<style type="text/css">
	.st0{fill:#E04F5F;}
	.st1{fill:#FBE158;}
	.st2{fill:#F99134;}
	.st3{fill:#FFFFFF;}
	.st4{fill:#CFD3D4;}
	.st5{fill:#40C9E7;}
	.st6{fill:#E2E4E5;}
	.st7{fill:#F0F1F1;}
	.st8{fill:#6FDAF1;}
</style>
<g id="XMLID_1_">
	<circle id="XMLID_3_" class="st0" cx="256" cy="256" r="256"/>
	<rect id="XMLID_4_" x="126" y="126" class="st1" width="148.9" height="260.7"/>
	<rect id="XMLID_5_" x="274.9" y="126" class="st2" width="111.9" height="204.8"/>
	<polygon id="XMLID_6_" class="st3" points="107.1,107.1 404.9,107.1 386,126 126,126 	"/>
	<polygon id="XMLID_7_" class="st3" points="107.1,404.9 274.9,404.9 274.9,386 126,386 	"/>
	<rect id="XMLID_8_" x="274.9" y="330.8" class="st4" width="111.9" height="74.8"/>
	<path id="XMLID_9_" class="st3" d="M367.9,330.8H293v-60.7c0-20.5,16.5-37,37-37c20.5,0,37,16.5,37,37v60.7H367.9z"/>
	<path id="XMLID_10_" class="st5" d="M307.2,270.2c0-12.6,10.2-23.6,23.6-23.6c12.6,0,23.6,10.2,23.6,23.6H307.2z"/>
	<rect id="XMLID_11_" x="307.2" y="279.6" class="st6" width="46.5" height="51.2"/>
	<rect id="XMLID_12_" x="274.9" y="386" class="st7" width="111.9" height="9.5"/>
	<rect id="XMLID_13_" x="274.9" y="367.9" class="st7" width="111.9" height="9.5"/>
	<rect id="XMLID_14_" x="274.9" y="348.9" class="st7" width="111.9" height="9.5"/>
	<rect id="XMLID_15_" x="274.9" y="330.8" class="st7" width="111.9" height="9.5"/>
	<circle id="XMLID_16_" class="st5" cx="330.8" cy="177.2" r="23.6"/>
	<path id="XMLID_19_" class="st3" d="M330.8,153.6c12.6,0,23.6,10.2,23.6,23.6c0,12.6-10.2,23.6-23.6,23.6
		c-12.6,0-23.6-10.2-23.6-23.6S317.4,153.6,330.8,153.6 M330.8,144.1c-18.1,0-32.3,15-32.3,32.3c0,18.1,15,32.3,32.3,32.3
		c18.1,0,32.3-15,32.3-32.3S348.2,144.1,330.8,144.1z"/>
	<path id="XMLID_20_" class="st5" d="M190.6,363.1h-46.5V293c0-12.6,10.2-23.6,23.6-23.6s23.6,10.2,23.6,23.6v70.1H190.6z"/>
	<rect id="XMLID_21_" x="144.1" y="330.8" class="st5" width="46.5" height="32.3"/>
	<path id="XMLID_22_" class="st5" d="M256,363.1h-46.5V293c0-12.6,10.2-23.6,23.6-23.6c12.6,0,23.6,10.2,23.6,23.6v70.1H256z"/>
	<rect id="XMLID_23_" x="209.5" y="330.8" class="st5" width="46.5" height="32.3"/>
	<path id="XMLID_24_" class="st5" d="M256,237.1h-46.5V167c0-12.6,10.2-23.6,23.6-23.6c12.6,0,23.6,10.2,23.6,23.6v70.1H256z"/>
	<rect id="XMLID_25_" x="209.5" y="204.8" class="st5" width="46.5" height="32.3"/>
	<path id="XMLID_26_" class="st8" d="M256,174.1v-6.3c0-12.6-10.2-23.6-23.6-23.6c-12.6,0-23.6,10.2-23.6,23.6v52.8L256,174.1z"/>
	<polygon id="XMLID_27_" class="st8" points="225.3,204.8 209.5,204.8 209.5,220.6 	"/>
	<path id="XMLID_28_" class="st8" d="M190.6,299.3V293c0-12.6-10.2-23.6-23.6-23.6c-13.4,0-23.6,10.2-23.6,23.6v52.8L190.6,299.3z"
		/>
	<polygon id="XMLID_29_" class="st8" points="159.9,330.8 144.1,330.8 144.1,345.8 	"/>
	<path id="XMLID_30_" class="st8" d="M256,299.3V293c0-12.6-10.2-23.6-23.6-23.6c-12.6,0-23.6,10.2-23.6,23.6v52.8L256,299.3z"/>
	<polygon id="XMLID_31_" class="st8" points="225.3,330.8 209.5,330.8 209.5,345.8 	"/>
	<rect id="XMLID_32_" x="209.5" y="195.3" class="st3" width="46.5" height="9.5"/>
	<rect id="XMLID_33_" x="144.1" y="321.4" class="st3" width="46.5" height="9.5"/>
	<rect id="XMLID_34_" x="209.5" y="321.4" class="st3" width="46.5" height="9.5"/>
	<polygon id="XMLID_35_" class="st3" points="107.1,237.1 274.9,237.1 274.9,256 126,256 	"/>
	<path id="XMLID_36_" class="st5" d="M190.6,237.1h-46.5V167c0-12.6,10.2-23.6,23.6-23.6s23.6,10.2,23.6,23.6v70.1H190.6z"/>
	<rect id="XMLID_37_" x="144.1" y="204.8" class="st5" width="46.5" height="32.3"/>
	<path id="XMLID_38_" class="st8" d="M190.6,174.1v-6.3c0-12.6-10.2-23.6-23.6-23.6c-13.4,0-23.6,10.2-23.6,23.6v52.8L190.6,174.1z"
		/>
	<rect id="XMLID_39_" x="144.1" y="195.3" class="st3" width="46.5" height="9.5"/>
	<path id="XMLID_40_" class="st3" d="M386,404.9h18.9V302.5c0-5.5-3.9-9.5-9.5-9.5s-9.5,3.9-9.5,9.5C386,302.5,386,404.9,386,404.9z
		"/>
</g>
</svg>
