<svg aria-hidden="true" style="position: absolute; width: 0; height: 0; overflow: hidden;" version="1.1" xmlns="http://www.w3.org/2000/svg" xmlns:xlink="http://www.w3.org/1999/xlink">
<defs>
<symbol id="icon-arrow-left" viewBox="0 0 32 32">
<path d="M0.166 15.909c-0.050 0.050-0.050 0.131 0 0.181l0.815 0.815c0.050 0.050 0.131 0.050 0.181 0s0.050-0.131 0-0.181l-0.724-0.724 0.724-0.724c0.050-0.050 0.050-0.131 0-0.181s-0.131-0.050-0.181 0l-0.815 0.815zM32 15.872h-31.744v0.256h31.744v-0.256z"></path>
</symbol>
<symbol id="icon-arrow-right" viewBox="0 0 32 32">
<path d="M31.835 15.909c0.050 0.050 0.050 0.131 0 0.181l-0.815 0.815c-0.050 0.050-0.131 0.050-0.181 0s-0.050-0.131 0-0.181l0.724-0.724-0.724-0.724c-0.050-0.050-0.050-0.131 0-0.181s0.131-0.050 0.181 0l0.815 0.815zM0 15.872h31.744v0.256h-31.744v-0.256z"></path>
</symbol>
<symbol id="icon-calendar" viewBox="0 0 32 32">
<path fill="none" stroke="#c7c7c7" style="stroke: var(--color1, #c7c7c7)" stroke-linejoin="round" stroke-linecap="round" stroke-miterlimit="4" stroke-width="1.8824" d="M24.784 5.961h-17.569c-1.386 0-2.51 1.124-2.51 2.51v17.569c0 1.386 1.124 2.51 2.51 2.51h17.569c1.386 0 2.51-1.124 2.51-2.51v-17.569c0-1.386-1.124-2.51-2.51-2.51z"></path>
<path fill="none" stroke="#c7c7c7" style="stroke: var(--color1, #c7c7c7)" stroke-linejoin="round" stroke-linecap="round" stroke-miterlimit="4" stroke-width="1.8824" d="M21.020 3.451v5.020"></path>
<path fill="none" stroke="#c7c7c7" style="stroke: var(--color1, #c7c7c7)" stroke-linejoin="round" stroke-linecap="round" stroke-miterlimit="4" stroke-width="1.8824" d="M10.98 3.451v5.020"></path>
<path fill="none" stroke="#c7c7c7" style="stroke: var(--color1, #c7c7c7)" stroke-linejoin="round" stroke-linecap="round" stroke-miterlimit="4" stroke-width="1.8824" d="M4.706 13.49h22.588"></path>
</symbol>
<symbol id="icon-chevron-down" viewBox="0 0 32 32">
<path fill="none" stroke="#c7c7c7" style="stroke: var(--color1, #c7c7c7)" stroke-linejoin="round" stroke-linecap="round" stroke-miterlimit="4" stroke-width="1.8824" d="M8.471 12.235l7.529 7.529 7.529-7.529"></path>
</symbol>
<symbol id="icon-chevron-left" viewBox="0 0 32 32">
<path fill="none" stroke="#fff" style="stroke: var(--color2, #fff)" stroke-linejoin="round" stroke-linecap="round" stroke-miterlimit="4" stroke-width="2.6667" d="M20 24l-8-8 8-8"></path>
</symbol>
<symbol id="icon-chevron-right" viewBox="0 0 32 32">
<path fill="none" stroke="#fff" style="stroke: var(--color2, #fff)" stroke-linejoin="round" stroke-linecap="round" stroke-miterlimit="4" stroke-width="2.6667" d="M12 24l8-8-8-8"></path>
</symbol>
<symbol id="icon-close" viewBox="0 0 32 32">
<path stroke-linejoin="round" stroke-linecap="round" stroke-miterlimit="4" stroke-width="2" d="M24 8l-16 16"></path>
<path stroke-linejoin="round" stroke-linecap="round" stroke-miterlimit="4" stroke-width="2" d="M8 8l16 16"></path>
</symbol>
<symbol id="icon-dollar-sign" viewBox="0 0 32 32">
<path stroke-linejoin="round" stroke-linecap="round" stroke-miterlimit="4" stroke-width="2" d="M16 1.333v29.333"></path>
<path stroke-linejoin="round" stroke-linecap="round" stroke-miterlimit="4" stroke-width="2" d="M22.667 6.667h-10c-1.238 0-2.425 0.492-3.3 1.367s-1.367 2.062-1.367 3.3c0 1.238 0.492 2.425 1.367 3.3s2.062 1.367 3.3 1.367h6.667c1.238 0 2.425 0.492 3.3 1.367s1.367 2.062 1.367 3.3c0 1.238-0.492 2.425-1.367 3.3s-2.062 1.367-3.3 1.367h-11.333"></path>
</symbol>
<symbol id="icon-download" viewBox="0 0 32 32">
<path stroke-linejoin="round" stroke-linecap="round" stroke-miterlimit="4" stroke-width="2.6667" d="M28 20v5.333c0 0.707-0.281 1.385-0.781 1.886s-1.178 0.781-1.886 0.781h-18.667c-0.707 0-1.386-0.281-1.886-0.781s-0.781-1.178-0.781-1.886v-5.333"></path>
<path stroke-linejoin="round" stroke-linecap="round" stroke-miterlimit="4" stroke-width="2.6667" d="M9.333 13.333l6.667 6.667 6.667-6.667"></path>
<path stroke-linejoin="round" stroke-linecap="round" stroke-miterlimit="4" stroke-width="2.6667" d="M16 20v-16"></path>
</symbol>
<symbol id="icon-hash" viewBox="0 0 32 32">
<path fill="none" stroke="#c7c7c7" style="stroke: var(--color1, #c7c7c7)" stroke-linejoin="round" stroke-linecap="round" stroke-miterlimit="4" stroke-width="1.8824" d="M5.961 12.235h20.078"></path>
<path fill="none" stroke="#c7c7c7" style="stroke: var(--color1, #c7c7c7)" stroke-linejoin="round" stroke-linecap="round" stroke-miterlimit="4" stroke-width="1.8824" d="M5.961 19.765h20.078"></path>
<path fill="none" stroke="#c7c7c7" style="stroke: var(--color1, #c7c7c7)" stroke-linejoin="round" stroke-linecap="round" stroke-miterlimit="4" stroke-width="1.8824" d="M13.49 4.706l-2.51 22.588"></path>
<path fill="none" stroke="#c7c7c7" style="stroke: var(--color1, #c7c7c7)" stroke-linejoin="round" stroke-linecap="round" stroke-miterlimit="4" stroke-width="1.8824" d="M21.020 4.706l-2.51 22.588"></path>
</symbol>
<symbol id="icon-map-pin" viewBox="0 0 32 32">
<path fill="none" stroke="#fff" style="stroke: var(--color2, #fff)" stroke-linejoin="round" stroke-linecap="round" stroke-miterlimit="4" stroke-width="2.6667" d="M28 13.333c0 9.333-12 17.333-12 17.333s-12-8-12-17.333c0-3.183 1.264-6.235 3.515-8.485s5.303-3.515 8.485-3.515c3.183 0 6.235 1.264 8.485 3.515s3.515 5.303 3.515 8.485z"></path>
<path fill="none" stroke="#fff" style="stroke: var(--color2, #fff)" stroke-linejoin="round" stroke-linecap="round" stroke-miterlimit="4" stroke-width="2.6667" d="M16 17.333c2.209 0 4-1.791 4-4s-1.791-4-4-4c-2.209 0-4 1.791-4 4s1.791 4 4 4z"></path>
</symbol>
<symbol id="icon-phone" viewBox="0 0 32 32">
<path fill="none" stroke="#c7c7c7" style="stroke: var(--color1, #c7c7c7)" stroke-linejoin="round" stroke-linecap="round" stroke-miterlimit="4" stroke-width="1.8824" d="M28.549 22.174v3.765c0.001 0.35-0.070 0.696-0.21 1.016s-0.345 0.608-0.603 0.844c-0.258 0.236-0.561 0.416-0.893 0.528s-0.682 0.154-1.030 0.122c-3.861-0.42-7.571-1.739-10.83-3.852-3.032-1.927-5.603-4.497-7.529-7.529-2.121-3.274-3.441-7.001-3.853-10.88-0.031-0.347 0.010-0.697 0.121-1.027s0.29-0.634 0.525-0.891c0.235-0.257 0.521-0.463 0.84-0.604s0.663-0.214 1.012-0.214h3.765c0.609-0.006 1.199 0.21 1.661 0.607s0.763 0.949 0.849 1.552c0.159 1.205 0.454 2.388 0.878 3.526 0.169 0.449 0.205 0.937 0.105 1.407s-0.333 0.9-0.67 1.241l-1.594 1.594c1.786 3.142 4.388 5.743 7.529 7.529l1.594-1.594c0.341-0.337 0.772-0.57 1.241-0.67s0.958-0.064 1.407 0.105c1.138 0.425 2.322 0.72 3.526 0.878 0.61 0.086 1.166 0.393 1.564 0.863s0.61 1.069 0.594 1.685z"></path>
</symbol>
<symbol id="icon-sliders" viewBox="0 0 32 32">
<path stroke-linejoin="round" stroke-linecap="round" stroke-miterlimit="4" stroke-width="2.6667" d="M5.333 28v-9.333"></path>
<path stroke-linejoin="round" stroke-linecap="round" stroke-miterlimit="4" stroke-width="2.6667" d="M5.333 13.333v-9.333"></path>
<path stroke-linejoin="round" stroke-linecap="round" stroke-miterlimit="4" stroke-width="2.6667" d="M16 28v-12"></path>
<path stroke-linejoin="round" stroke-linecap="round" stroke-miterlimit="4" stroke-width="2.6667" d="M16 10.667v-6.667"></path>
<path stroke-linejoin="round" stroke-linecap="round" stroke-miterlimit="4" stroke-width="2.6667" d="M26.667 28v-6.667"></path>
<path stroke-linejoin="round" stroke-linecap="round" stroke-miterlimit="4" stroke-width="2.6667" d="M26.667 16v-12"></path>
<path stroke-linejoin="round" stroke-linecap="round" stroke-miterlimit="4" stroke-width="2.6667" d="M1.333 18.667h8"></path>
<path stroke-linejoin="round" stroke-linecap="round" stroke-miterlimit="4" stroke-width="2.6667" d="M12 10.667h8"></path>
<path stroke-linejoin="round" stroke-linecap="round" stroke-miterlimit="4" stroke-width="2.6667" d="M22.667 21.333h8"></path>
</symbol>
<symbol id="icon-star" viewBox="0 0 32 32">
<path fill="#6d6d6d" style="fill: var(--color3, #6d6d6d); stroke: var(--color3, #6d6d6d)" stroke="#6d6d6d" stroke-linejoin="round" stroke-linecap="round" stroke-miterlimit="4" stroke-width="1.4545" d="M16 2.167l4.495 9.105 10.051 1.469-7.273 7.084 1.716 10.007-8.989-4.727-8.989 4.727 1.716-10.007-7.273-7.084 10.051-1.469 4.495-9.105z"></path>
</symbol>
<symbol id="icon-user" viewBox="0 0 32 32">
<path fill="none" stroke="#c7c7c7" style="stroke: var(--color1, #c7c7c7)" stroke-linejoin="round" stroke-linecap="round" stroke-miterlimit="4" stroke-width="1.8824" d="M26.039 27.294v-2.51c0-1.331-0.529-2.608-1.47-3.55s-2.218-1.47-3.549-1.47h-10.039c-1.331 0-2.608 0.529-3.549 1.47s-1.47 2.218-1.47 3.55v2.51"></path>
<path fill="none" stroke="#c7c7c7" style="stroke: var(--color1, #c7c7c7)" stroke-linejoin="round" stroke-linecap="round" stroke-miterlimit="4" stroke-width="1.8824" d="M16 14.745c2.772 0 5.020-2.247 5.020-5.020s-2.247-5.020-5.020-5.020c-2.772 0-5.020 2.247-5.020 5.020s2.247 5.020 5.020 5.020z"></path>
</symbol>
<symbol id="icon-burger-mobile" viewBox="0 0 54 32">
<path  d="M3.341 0h47.473c1.457 0 2.637 1.181 2.637 2.637s-1.181 2.637-2.637 2.637h-47.473c-1.457 0-2.637-1.181-2.637-2.637s1.181-2.637 2.637-2.637z"></path>
<path  d="M3.341 13.187h47.473c1.457 0 2.637 1.181 2.637 2.637s-1.181 2.637-2.637 2.637h-47.473c-1.457 0-2.637-1.181-2.637-2.637s1.181-2.637 2.637-2.637z"></path>
<path  d="M3.341 26.373h47.473c1.457 0 2.637 1.181 2.637 2.637s-1.181 2.637-2.637 2.637h-47.473c-1.457 0-2.637-1.181-2.637-2.637s1.181-2.637 2.637-2.637z"></path>
</symbol>
<symbol id="icon-map-pin-footer" viewBox="0 0 32 32">
<path stroke-linejoin="round" stroke-linecap="round" stroke-miterlimit="1" stroke-width="2" d="M28 13.334c0 9.333-12 17.333-12 17.333s-12-8-12-17.333c0-3.183 1.264-6.235 3.515-8.485s5.303-3.515 8.485-3.515c3.183 0 6.235 1.264 8.485 3.515s3.515 5.303 3.515 8.485z"></path>
<path stroke-linejoin="round" stroke-linecap="round" stroke-miterlimit="4" stroke-width="2" d="M16 17.334c2.209 0 4-1.791 4-4s-1.791-4-4-4c-2.209 0-4 1.791-4 4s1.791 4 4 4z"></path>
</symbol>
<symbol id="icon-Facebook" viewBox="0 0 32 32">
<path d="M0.762 0.762h30.476v30.476h-30.476v-30.476z"></path>
</symbol>
<symbol id="icon-arrow-left-circle" viewBox="0 0 32 32">
<path fill="none" stroke="#636363" style="stroke: var(--color1, #636363)" stroke-linejoin="round" stroke-linecap="round" stroke-miterlimit="4" stroke-width="1.3333" d="M16 29.333c7.364 0 13.333-5.97 13.333-13.333s-5.97-13.333-13.333-13.333c-7.364 0-13.333 5.97-13.333 13.333s5.97 13.333 13.333 13.333z"></path>
<path fill="none" stroke="#636363" style="stroke: var(--color1, #636363)" stroke-linejoin="round" stroke-linecap="round" stroke-miterlimit="4" stroke-width="1.3333" d="M16 10.667l-5.333 5.333 5.333 5.333"></path>
<path fill="none" stroke="#636363" style="stroke: var(--color1, #636363)" stroke-linejoin="round" stroke-linecap="round" stroke-miterlimit="4" stroke-width="1.3333" d="M21.333 16h-10.667"></path>
</symbol>

</defs>
</svg>
